<svg width="657" height="93" viewBox="0 0 657 93" fill="none" xmlns="http://www.w3.org/2000/svg">
<path d="M62.6043 9.14113H91.5027V91.0396H66.9332V41.6665L50.6705 91.0396H41.7787L25.516 41.9005V91.0396H6.79634V9.14113H39.6727L51.1385 43.8895L62.6043 9.14113ZM140.74 91.0396L136.997 75.3619H119.447L115.703 91.0396H94.0584L117.575 9.14113H146.356L169.405 91.0396H140.74ZM122.957 61.0881H133.487L128.222 39.3265L122.957 61.0881ZM220.314 9.14113V29.7327H201.477V91.0396H174.801V29.7327H155.848V9.14113H220.314ZM287.729 9.14113V29.7327H268.892V91.0396H242.217V29.7327H223.263V9.14113H287.729Z" fill="#444444"/>
<path d="M348.271 8.10158C367.809 8.10158 378.69 16.8764 378.69 32.6711C378.69 48.4658 367.809 57.2406 348.271 57.2406H337.273V90H310.597V8.10158H348.271ZM344.41 40.8609C349.792 40.8609 352.483 38.638 352.483 34.1921C352.483 29.7462 349.792 27.5232 344.41 27.5232H337.273V40.8609H344.41ZM383.154 90V8.10158H409.83V90H383.154ZM465.959 8.10158H485.849V90H459.642L435.072 40.276V90H415.182V8.10158H446.421L465.959 47.8808V8.10158ZM553.442 8.10158V28.6932H534.605V90H507.93V28.6932H488.976V8.10158H553.442ZM591.712 91.404C567.844 91.404 552.752 75.0243 552.752 49.0508C552.752 23.0773 567.844 6.69761 591.712 6.69761C615.813 6.69761 630.672 23.0773 630.672 49.0508C630.672 75.0243 615.813 91.404 591.712 91.404ZM591.712 69.6424C599.317 69.6424 602.827 62.8565 602.827 49.0508C602.827 35.2451 599.317 28.4592 591.712 28.4592C584.107 28.4592 580.597 35.2451 580.597 49.0508C580.597 62.8565 584.107 69.6424 591.712 69.6424Z" fill="#444444"/>
</svg>
